<svg width="130" height="130" viewBox="0 0 130 130" fill="none" xmlns="http://www.w3.org/2000/svg">
<rect width="130" height="130" rx="23" fill="white"/>
<path d="M6.24334 59.0519C4.47329 67.1786 6.86119 76.0734 12.2827 81.9569C12.6779 82.391 13.1009 82.8085 13.5239 83.2037C14.4257 84.4951 15.4721 85.6695 16.6577 86.7327C16.9082 86.9609 17.1698 87.1835 17.4314 87.3895C17.988 87.8459 18.5725 88.2689 19.1736 88.6586C18.0214 88.2522 16.9026 87.7568 15.8172 87.178C4.97982 81.3613 -0.770072 66.9114 5.44738 54.6546C8.67021 48.298 13.7744 44.4796 20.0809 41.986C19.5911 42.1808 19.118 42.3979 18.656 42.6372C18.4556 42.7263 18.2608 42.8265 18.066 42.9322C18.0381 42.9433 18.0103 42.96 17.988 42.9712C12.0433 46.1717 7.77961 52.0274 6.24334 59.0519Z" fill="#73AA26"/>
<path d="M46.8654 40.1213C46.5815 44.1178 45.8301 47.6356 43.8708 51.0477C43.2251 52.1721 42.4625 53.1406 41.5887 53.9811C38.2656 51.8493 34.3637 50.6525 30.3672 50.6525C29.6603 50.6525 28.9589 50.6859 28.252 50.7639C28.291 50.7472 28.33 50.7305 28.3745 50.7138C34.4083 48.209 39.98 42.4479 41.1211 39.9821C39.813 41.8691 33.2338 46.066 29.3486 47.2349C22.9029 49.1775 16.4517 52.6118 12.817 58.2838C10.8855 61.284 9.87245 64.863 9.88358 68.431C9.88358 68.6314 9.88358 68.8262 9.89471 69.0321C9.70546 70.7354 9.72772 72.4665 9.97264 74.1976C10.1062 75.1383 10.3066 76.0734 10.5682 76.9862C10.8688 78.0438 11.264 79.0903 11.7371 80.1033C12.2492 81.1943 12.8448 82.2296 13.5294 83.1981C14.4312 84.4895 15.4776 85.6639 16.6632 86.7271C16.9137 86.9553 17.1753 87.178 17.4369 87.3839C10.3511 83.4152 5.24137 75.9231 4.43983 67.802C3.47688 58.0834 8.77034 48.0308 17.3256 43.3163C17.5482 43.1938 17.7709 43.0769 17.988 42.9656C18.0158 42.9489 18.0381 42.9378 18.0659 42.9266C18.2607 42.8264 18.4611 42.7263 18.6559 42.6316C19.3294 42.3088 20.0196 42.0138 20.7154 41.7355C26.9885 39.2418 34.0075 38.4514 39.8687 35.0505C42.0228 33.8036 44.3551 31.7163 44.2382 29C45.9526 32.1171 47.1159 36.5756 46.8654 40.1213Z" fill="#80CC29"/>
<path d="M107.749 52.5227C107.587 52.5227 107.426 52.5227 107.27 52.5282C103.168 52.6117 99.6776 53.8029 96.7053 56.1518C95.8815 56.8031 95.0966 57.5378 94.3508 58.3672C92.9871 59.8756 91.8349 61.5844 90.7995 63.3823C89.5917 65.4863 88.5508 67.7184 87.5266 69.9115C85.6118 74.0082 83.8362 77.8099 81.2702 80.4706L81.2535 80.4539C78.7765 82.9308 75.4869 84.2945 71.9858 84.2945C68.4846 84.2945 65.195 82.9308 62.7181 80.4539C60.2411 77.9769 58.8774 74.6873 58.8774 71.1861C58.8774 70.0395 59.0277 68.9151 59.3115 67.8353C57.881 69.5886 56.4449 71.5758 54.9254 73.7355L54.4355 74.4312C54.2185 74.7374 54.0014 75.0435 53.7843 75.3552C54.5524 78.7506 56.2668 81.8621 58.7827 84.3836C62.3062 87.907 66.9929 89.8496 71.9802 89.8496C77.5575 89.8496 82.0216 87.9181 85.6397 83.9383C87.4209 81.979 88.8458 79.6857 90.1093 77.2867C90.9777 75.6391 91.7736 73.9358 92.5529 72.2604C93.6105 69.995 94.6291 67.8241 95.759 65.8927C96.7776 63.5883 98.4475 61.629 100.535 60.2485C102.316 58.9683 104.459 58.1835 107.175 58.0889C107.253 58.0889 107.331 58.0833 107.415 58.0833C107.526 58.0833 107.637 58.0833 107.754 58.0833C114.979 58.0833 120.857 63.9612 120.857 71.1861C120.857 78.4111 114.979 84.289 107.754 84.289C100.529 84.289 95.2191 78.9566 94.6959 72.2047C94.5623 72.4886 94.4287 72.7781 94.2896 73.0675C93.5047 74.7485 92.692 76.4852 91.8015 78.1717C91.5565 78.6393 91.3061 79.0901 91.0612 79.5187C94.1281 85.636 100.457 89.844 107.749 89.844C118.041 89.844 126.412 81.4725 126.412 71.1806C126.412 60.8887 118.041 52.5171 107.749 52.5171V52.5227Z" fill="url(#paint0_linear_649_136)"/>
<path d="M71.9801 52.6619C66.8147 52.6619 62.178 54.5711 57.8364 58.5008C54.2128 61.7738 51.2182 66.0263 48.3293 70.1398C47.6391 71.1194 46.9545 72.0991 46.2643 73.0565C46.0806 73.3014 45.908 73.5518 45.7243 73.7968C42.2232 78.5781 38.6219 82.6526 34.0131 83.9773C33.2561 84.1889 32.5046 84.3224 31.742 84.3948C31.4248 84.4226 31.1019 84.4338 30.7735 84.4338C29.8829 84.4505 28.9812 84.367 28.0628 84.2056C23.9939 83.4931 20.6263 80.8937 18.7951 77.309C18.4054 76.552 18.0882 75.7505 17.8488 74.9044C17.5649 73.9192 17.4035 72.9173 17.359 71.9154C17.2421 69.5052 17.7987 67.1062 19.001 64.9465C20.0419 63.0707 21.5002 61.5066 23.248 60.3711C24.3501 59.6475 25.5636 59.0853 26.8661 58.7124C28.9033 58.1335 30.9795 58.1168 32.9499 58.5732C35.9167 59.2356 38.633 60.95 40.5923 63.3323L19.3406 71.1862C19.3851 72.1826 19.5465 73.1845 19.8304 74.1753C20.0697 75.0158 20.387 75.8173 20.7766 76.5799L43.214 68.2918L48.474 66.3547C47.9508 64.5123 47.1604 62.8091 46.1696 61.2784C44.5721 58.8237 42.4403 56.8031 39.98 55.3337C37.1079 53.6193 33.8015 52.6619 30.3839 52.6619C28.7196 52.6619 27.0275 52.8901 25.3465 53.3688C20.554 54.7325 16.5797 57.8886 14.1529 62.2413C13.3792 63.6384 12.7891 65.1023 12.3939 66.6052C11.7705 68.982 11.6258 71.4534 11.9765 73.9025C12.0989 74.7486 12.2715 75.5946 12.5108 76.4296C12.7891 77.3981 13.1454 78.3388 13.5684 79.2461C13.6463 79.4019 13.7187 79.5578 13.8022 79.7081C14.8375 81.7843 16.2624 83.6545 18.0102 85.2186C19.8359 86.8495 21.9511 88.1019 24.2444 88.909C25.0626 89.1984 25.9031 89.4322 26.7547 89.6103C26.8549 89.6326 26.9551 89.6493 27.0553 89.666C27.8847 89.8219 28.7196 89.9165 29.549 89.9554C29.9609 89.9833 30.3672 89.9833 30.7847 89.9833C31.6307 89.9833 32.4545 89.9332 33.2728 89.8163C37.0522 89.2819 40.5422 87.5119 43.8819 84.4449C47.255 81.3501 50.1161 77.2756 52.888 73.3292C53.055 73.0954 53.2164 72.8672 53.3834 72.6334C58.6658 65.1246 63.77 58.217 72.0024 58.217C75.5035 58.217 78.7931 59.5807 81.2701 62.0521L85.1998 58.1168C81.6764 54.5934 76.9897 52.6508 72.0079 52.6508L71.9801 52.6619Z" fill="url(#paint1_linear_649_136)"/>
<path d="M85.1776 58.128L81.2479 62.0633C78.7709 59.5919 75.4813 58.2282 71.9801 58.2282C63.7477 58.2282 58.6435 65.1359 53.3612 72.6447C53.1942 72.8785 53.0328 73.1067 52.8658 73.3405C50.0938 77.2813 47.2384 81.3558 43.8597 84.4562C40.5144 87.5231 37.0244 89.2932 33.2505 89.8275C32.4323 89.9444 31.6085 90.0001 30.7624 90.0001C30.3505 90.0001 29.9442 90.0001 29.5267 89.9723C28.6974 89.9333 27.8624 89.8387 27.0331 89.6828C26.9329 89.6661 26.8327 89.6494 26.7325 89.6272C25.8809 89.449 25.0404 89.2208 24.2221 88.9258C21.9289 88.1187 19.8137 86.8663 17.988 85.2354C16.2402 83.6769 14.8153 81.8011 13.7799 79.7249C13.702 79.5746 13.6241 79.4188 13.5462 79.2629C13.1231 78.3556 12.7669 77.4149 12.4886 76.4464C12.2492 75.6115 12.0767 74.7654 11.9542 73.9193C11.6091 71.4702 11.7483 68.9988 12.3717 66.622C12.7669 65.1136 13.3513 63.6497 14.1306 62.2581C16.5575 57.8998 20.5317 54.7493 25.3242 53.3856C26.9997 52.9069 28.6918 52.6787 30.3617 52.6787C33.7793 52.6787 37.0912 53.6361 39.9578 55.3505C42.418 56.8144 44.5499 58.8405 46.1474 61.2952C47.1382 62.8259 47.9286 64.5292 48.4518 66.3716L43.1917 68.3086L20.7544 76.5967C20.3648 75.8341 20.0475 75.0381 19.8081 74.1921C19.5243 73.2013 19.3628 72.1994 19.3183 71.203L40.5701 63.3491C38.6052 60.9668 35.8889 59.2524 32.9277 58.59C30.9572 58.1392 28.881 58.1503 26.8438 58.7292C25.5469 59.1021 24.3335 59.6587 23.2258 60.3879C21.478 61.5234 20.0252 63.0875 18.9788 64.9633C17.7765 67.123 17.2199 69.522 17.3367 71.9322C17.3813 72.9341 17.5427 73.936 17.8266 74.9213C18.0659 75.7618 18.3832 76.5689 18.7728 77.3259C20.5985 80.9049 23.9717 83.5043 28.0405 84.2224C28.959 84.3838 29.8607 84.4617 30.7513 84.4562C31.0797 84.4562 31.4025 84.4339 31.7198 84.4116C32.4824 84.3393 33.2338 84.2057 33.9908 83.9942C38.6052 82.6638 42.2065 78.5894 45.7021 73.8136C45.8858 73.5687 46.0583 73.3182 46.242 73.0733C46.9322 72.1159 47.6169 71.1418 48.3071 70.1566C51.1959 66.0432 54.1906 61.7906 57.8142 58.5177C62.1614 54.5879 66.7924 52.6787 71.9579 52.6787C76.9452 52.6787 81.6264 54.6157 85.1498 58.1447L85.1776 58.128Z" fill="url(#paint2_linear_649_136)"/>
<path d="M105.116 81.8232L105.105 84.5062H105.082H105.066L104.67 84.4783C104.67 84.4783 104.67 84.4783 104.659 84.4783C104.637 84.4783 104.615 84.4783 104.593 84.4783L103.591 84.406C103.591 84.406 103.568 84.406 103.563 84.406L103.095 84.3726L103.106 81.8288H105.116V81.8232Z" fill="#8CC63F"/>
<path d="M106.262 73.5907L106.24 79.3239L104.225 80.131L104.247 73.5796L106.262 73.5907Z" fill="#8CC63F"/>
<path d="M106.235 80.1589L106.218 84.5395L105.494 84.5228L105.505 81.5672L104.22 81.5616V80.966L106.235 80.1589Z" fill="#8CC63F"/>
<path d="M108.879 82.252L108.873 84.5063L108.283 84.5285L108.289 82.252H108.879Z" fill="#8CC63F"/>
<path d="M110.348 69.5164L110.32 77.4928L108.901 77.4872L108.878 82.2519H108.288L108.338 69.5052L110.348 69.5164Z" fill="#8CC63F"/>
<path d="M107.005 82.246L107.003 82.7637L107.309 82.7648L107.311 82.2472L107.005 82.246Z" fill="#8CC63F"/>
<path d="M107.005 82.9388L107.003 83.4564L107.309 83.4576L107.311 82.9399L107.005 82.9388Z" fill="#8CC63F"/>
<path d="M107.576 84.2113V84.5452H106.997V84.2057C107.192 84.2057 107.387 84.2057 107.576 84.2057" fill="#8CC63F"/>
<path d="M108.238 65.2638L108.222 69.2103H107.632L107.576 84.2112C107.381 84.2112 107.192 84.2112 106.997 84.2112V83.4542H107.303V82.9365H107.003V82.7695H107.309V82.2519H107.008L107.042 73.3181H106.262L106.296 65.2583H106.869L106.886 61.4287H107.682L107.665 65.2638H108.238Z" fill="#8CC63F"/>
<path d="M111.445 77.7599L111.422 83.9941C110.782 84.0664 110.125 84.1165 109.469 84.1499L109.491 77.7488H111.445V77.7599Z" fill="#8CC63F"/>
<path d="M111.422 83.9996V84.3002L109.469 84.4728V84.1555C110.125 84.1221 110.782 84.0664 111.422 83.9996Z" fill="#8CC63F"/>
<path d="M106.24 79.3241L106.235 80.159L104.22 80.9661L104.225 80.1312L106.24 79.3241Z" fill="#8CC63F"/>
<defs>
<linearGradient id="paint0_linear_649_136" x1="53.7843" y1="71.1861" x2="126.412" y2="71.1861" gradientUnits="userSpaceOnUse">
<stop stop-color="#77A20A"/>
<stop offset="1" stop-color="#80CC29"/>
</linearGradient>
<linearGradient id="paint1_linear_649_136" x1="16.7912" y1="83.7547" x2="65.8907" y2="47.7469" gradientUnits="userSpaceOnUse">
<stop stop-color="#80CC29"/>
<stop offset="1" stop-color="#77A20A"/>
</linearGradient>
<linearGradient id="paint2_linear_649_136" x1="16.7913" y1="83.7548" x2="65.8907" y2="47.7471" gradientUnits="userSpaceOnUse">
<stop stop-color="#80CC29"/>
<stop offset="1" stop-color="#77A20A"/>
</linearGradient>
</defs>
</svg>
