<svg width="796" height="388" viewBox="0 0 796 388" fill="none" xmlns="http://www.w3.org/2000/svg">
<path d="M33.2803 190.742C22.0457 242.322 37.2018 298.778 71.6124 336.121C74.1207 338.877 76.8058 341.526 79.4908 344.035C85.2141 352.231 91.8559 359.685 99.381 366.433C100.971 367.882 102.631 369.295 104.292 370.602C107.825 373.499 111.534 376.184 115.35 378.657C108.037 376.078 100.936 372.934 94.0464 369.26C25.2606 332.341 -11.2344 240.626 28.2282 162.832C48.6838 122.486 81.0806 98.25 121.108 82.4226C117.999 83.6591 114.997 85.037 112.064 86.5561C110.792 87.1214 109.556 87.7573 108.319 88.4286C108.143 88.4992 107.966 88.6052 107.825 88.6759C70.0932 108.99 43.0311 146.156 33.2803 190.742Z" fill="#73AA26"/>
<path d="M291.112 70.5875C289.31 95.9538 284.541 118.282 272.105 139.939C268.006 147.075 263.166 153.222 257.62 158.557C236.528 145.026 211.763 137.43 186.396 137.43C181.909 137.43 177.458 137.642 172.971 138.137C173.219 138.031 173.466 137.925 173.748 137.819C212.045 121.921 247.41 85.3551 254.652 69.7043C246.35 81.6809 204.591 108.319 179.931 115.738C139.02 128.068 98.0735 149.866 75.0036 185.866C62.7444 204.909 56.3145 227.625 56.3852 250.271C56.3852 251.543 56.3852 252.78 56.4559 254.087C55.2547 264.898 55.396 275.885 56.9505 286.872C57.7984 292.843 59.0702 298.778 60.7307 304.572C62.6385 311.285 65.1468 317.927 68.1498 324.356C71.4001 331.281 75.1803 337.852 79.5258 343.999C85.2491 352.196 91.8909 359.65 99.416 366.398C101.006 367.847 102.666 369.26 104.327 370.567C59.3529 345.377 26.9207 297.824 21.8333 246.279C15.7214 184.595 49.3194 120.79 103.62 90.8664C105.033 90.0892 106.447 89.3473 107.824 88.6407C108.001 88.5347 108.142 88.4641 108.319 88.3934C109.555 87.7575 110.827 87.1216 112.064 86.521C116.339 84.4719 120.719 82.5994 125.136 80.833C164.952 65.0055 209.502 59.9888 246.703 38.4027C260.375 30.489 275.178 17.2406 274.436 0C285.318 19.7843 292.702 48.0829 291.112 70.5875Z" fill="#80CC29"/>
<path d="M677.542 149.301C676.517 149.301 675.493 149.301 674.503 149.336C648.466 149.866 626.315 157.426 607.449 172.335C602.22 176.469 597.239 181.132 592.505 186.396C583.849 195.97 576.536 206.816 569.965 218.228C562.298 231.582 555.692 245.749 549.191 259.669C537.038 285.671 525.768 309.801 509.481 326.688L509.375 326.582C493.654 342.304 472.774 350.959 450.552 350.959C428.33 350.959 407.451 342.304 391.729 326.582C376.008 310.861 367.352 289.981 367.352 267.759C367.352 260.481 368.306 253.345 370.108 246.491C361.028 257.62 351.913 270.232 342.269 283.94L339.16 288.356C337.782 290.299 336.404 292.242 335.026 294.221C339.902 315.771 350.783 335.52 366.752 351.524C389.115 373.888 418.862 386.218 450.517 386.218C485.917 386.218 514.251 373.958 537.215 348.698C548.52 336.262 557.564 321.707 565.584 306.48C571.095 296.022 576.147 285.212 581.093 274.578C587.806 260.199 594.271 246.42 601.443 234.161C607.908 219.535 618.507 207.099 631.755 198.337C643.061 190.212 656.662 185.23 673.903 184.63C674.397 184.63 674.892 184.594 675.422 184.594C676.129 184.594 676.835 184.594 677.577 184.594C723.434 184.594 760.742 221.902 760.742 267.759C760.742 313.616 723.434 350.924 677.577 350.924C631.72 350.924 598.016 317.079 594.695 274.224C593.847 276.026 592.999 277.863 592.116 279.7C587.135 290.37 581.977 301.392 576.324 312.097C574.769 315.065 573.18 317.927 571.625 320.647C591.091 359.474 631.261 386.182 677.542 386.182C742.865 386.182 796 333.047 796 267.724C796 202.4 742.865 149.265 677.542 149.265V149.301Z" fill="url(#paint0_linear_649_66)"/>
<path d="M450.516 150.184C417.731 150.184 388.302 162.302 360.745 187.244C337.746 208.018 318.739 235.009 300.403 261.117C296.022 267.335 291.677 273.553 287.296 279.63C286.13 281.184 285.035 282.774 283.869 284.329C261.647 314.676 238.789 340.537 209.537 348.945C204.732 350.288 199.963 351.136 195.122 351.595C193.109 351.772 191.06 351.842 188.975 351.842C183.323 351.948 177.599 351.418 171.77 350.394C145.944 345.872 124.57 329.373 112.947 306.621C110.474 301.816 108.46 296.729 106.941 291.359C105.139 285.106 104.115 278.747 103.832 272.387C103.09 257.09 106.623 241.863 114.254 228.155C120.861 216.249 130.117 206.322 141.21 199.115C148.205 194.522 155.907 190.954 164.174 188.587C177.105 184.912 190.282 184.806 202.789 187.703C221.619 191.908 238.86 202.789 251.296 217.91L116.409 267.759C116.692 274.083 117.716 280.442 119.518 286.731C121.037 292.066 123.051 297.153 125.524 301.993L267.936 249.388L301.322 237.094C298.001 225.4 292.984 214.589 286.695 204.873C276.556 189.293 263.025 176.469 247.41 167.142C229.18 156.261 208.194 150.184 186.502 150.184C175.939 150.184 165.199 151.632 154.529 154.671C124.111 163.326 98.886 183.358 83.4825 210.985C78.5717 219.853 74.8269 229.144 72.3185 238.683C68.3616 253.769 67.4431 269.455 69.6688 285C70.446 290.37 71.5412 295.74 73.0604 301.039C74.8269 307.186 77.0879 313.157 79.7729 318.916C80.2675 319.905 80.7268 320.894 81.2568 321.848C87.828 335.026 96.8722 346.896 107.966 356.824C119.553 367.175 132.979 375.124 147.534 380.247C152.728 382.084 158.062 383.568 163.468 384.698C164.103 384.84 164.739 384.946 165.375 385.052C170.639 386.041 175.939 386.642 181.203 386.889C183.817 387.066 186.396 387.066 189.046 387.066C194.416 387.066 199.645 386.748 204.838 386.006C228.826 382.614 250.978 371.379 272.175 351.913C293.585 332.27 311.744 306.409 329.338 281.361C330.398 279.877 331.422 278.429 332.482 276.945C366.009 229.286 398.406 185.442 450.658 185.442C472.88 185.442 493.759 194.098 509.481 209.784L534.423 184.806C512.06 162.443 482.313 150.113 450.693 150.113L450.516 150.184Z" fill="url(#paint1_linear_649_66)"/>
<path d="M534.282 184.877L509.34 209.855C493.618 194.169 472.739 185.513 450.517 185.513C398.265 185.513 365.868 229.357 332.341 277.016C331.281 278.499 330.256 279.948 329.197 281.432C311.603 306.445 293.479 332.306 272.034 351.984C250.801 371.45 228.65 382.685 204.697 386.076C199.503 386.818 194.275 387.172 188.905 387.172C186.29 387.172 183.711 387.172 181.062 386.995C175.798 386.748 170.498 386.147 165.234 385.158C164.598 385.052 163.962 384.946 163.326 384.805C157.921 383.674 152.586 382.226 147.393 380.353C132.837 375.23 119.412 367.281 107.824 356.93C96.7311 347.038 87.6868 335.132 81.1156 321.954C80.621 321 80.1264 320.011 79.6318 319.022C76.9468 313.263 74.6857 307.293 72.9193 301.145C71.4001 295.846 70.3049 290.476 69.5277 285.106C67.3373 269.561 68.2205 253.875 72.1773 238.789C74.6857 229.215 78.3953 219.924 83.3413 211.091C98.7448 183.429 123.97 163.432 154.388 154.777C165.022 151.739 175.762 150.29 186.361 150.29C208.053 150.29 229.074 156.367 247.268 167.248C262.884 176.54 276.415 189.399 286.554 204.979C292.843 214.695 297.86 225.506 301.181 237.2L267.795 249.494L125.383 302.099C122.91 297.259 120.896 292.207 119.377 286.837C117.575 280.548 116.551 274.189 116.268 267.865L251.155 218.016C238.683 202.895 221.443 192.014 202.648 187.81C190.141 184.948 176.963 185.019 164.033 188.693C155.801 191.06 148.1 194.593 141.069 199.221C129.976 206.428 120.755 216.355 114.113 228.261C106.482 241.969 102.949 257.196 103.691 272.493C103.974 278.853 104.998 285.212 106.8 291.465C108.319 296.8 110.333 301.923 112.806 306.727C124.394 329.444 145.803 345.943 171.629 350.5C177.458 351.525 183.181 352.019 188.834 351.984C190.918 351.984 192.968 351.843 194.981 351.701C199.821 351.242 204.591 350.394 209.396 349.052C238.683 340.608 261.541 314.747 283.728 284.435C284.894 282.88 285.989 281.29 287.155 279.736C291.536 273.659 295.881 267.477 300.262 261.223C318.598 235.115 337.605 208.124 360.604 187.35C388.196 162.408 417.59 150.29 450.375 150.29C482.03 150.29 511.742 162.585 534.105 184.983L534.282 184.877Z" fill="url(#paint2_linear_649_66)"/>
<path d="M660.831 335.273L660.76 352.302H660.619H660.513L658.004 352.125C658.004 352.125 658.004 352.125 657.934 352.125C657.792 352.125 657.651 352.125 657.51 352.125L651.15 351.666C651.15 351.666 651.009 351.666 650.974 351.666L648.006 351.454L648.077 335.309H660.831V335.273Z" fill="#8CC63F"/>
<path d="M668.108 283.021L667.967 319.41L655.178 324.533L655.319 282.951L668.108 283.021Z" fill="#8CC63F"/>
<path d="M667.932 324.71L667.826 352.514L663.233 352.408L663.304 333.648L655.143 333.613V329.833L667.932 324.71Z" fill="#8CC63F"/>
<path d="M684.713 337.994L684.678 352.302L680.933 352.443L680.968 337.994H684.713Z" fill="#8CC63F"/>
<path d="M694.04 257.161L693.863 307.787L684.854 307.752L684.713 337.994H680.968L681.286 257.09L694.04 257.161Z" fill="#8CC63F"/>
<path d="M672.819 337.956L672.806 341.242L674.749 341.249L674.762 337.964L672.819 337.956Z" fill="#8CC63F"/>
<path d="M672.819 342.354L672.806 345.64L674.749 345.647L674.762 342.362L672.819 342.354Z" fill="#8CC63F"/>
<path d="M676.446 350.43V352.549H672.772V350.394C674.008 350.394 675.245 350.394 676.446 350.394" fill="#8CC63F"/>
<path d="M680.65 230.169L680.544 255.217H676.799L676.446 350.429C675.209 350.429 674.008 350.429 672.772 350.429V345.625H674.715V342.339H672.807V341.279H674.75V337.994H672.842L673.054 281.29H668.108L668.32 230.134H671.959L672.065 205.827H677.117L677.011 230.169H680.65Z" fill="#8CC63F"/>
<path d="M701 309.483L700.858 349.051C696.795 349.511 692.627 349.829 688.458 350.041L688.599 309.412H701V309.483Z" fill="#8CC63F"/>
<path d="M700.858 349.087V350.995L688.458 352.09V350.076C692.627 349.864 696.795 349.511 700.858 349.087Z" fill="#8CC63F"/>
<path d="M667.967 319.411L667.932 324.71L655.143 329.833L655.178 324.533L667.967 319.411Z" fill="#8CC63F"/>
<defs>
<linearGradient id="paint0_linear_649_66" x1="335.026" y1="267.759" x2="796" y2="267.759" gradientUnits="userSpaceOnUse">
<stop stop-color="#77A20A"/>
<stop offset="1" stop-color="#80CC29"/>
</linearGradient>
<linearGradient id="paint1_linear_649_66" x1="100.228" y1="347.532" x2="411.866" y2="118.988" gradientUnits="userSpaceOnUse">
<stop stop-color="#80CC29"/>
<stop offset="1" stop-color="#77A20A"/>
</linearGradient>
<linearGradient id="paint2_linear_649_66" x1="100.229" y1="347.532" x2="411.867" y2="118.988" gradientUnits="userSpaceOnUse">
<stop stop-color="#80CC29"/>
<stop offset="1" stop-color="#77A20A"/>
</linearGradient>
</defs>
</svg>
